<svg width="304" height="64" viewBox="0 0 304 64" fill="none" xmlns="http://www.w3.org/2000/svg">
<g clip-path="url(#clip0_115_530)">
<path d="M54.2891 12.7169C54.4406 12.4388 54.5177 12.1265 54.5128 11.81C54.508 11.4935 54.4214 11.1836 54.2616 10.9103C54.1017 10.6371 53.8739 10.4097 53.6002 10.2502C53.3265 10.0907 53.0163 10.0045 52.6995 10H19.0043C16.6162 10 14.3259 10.9478 12.6373 12.6349C10.9487 14.322 10 16.6102 10 18.9962C10 21.3821 10.9487 23.6703 12.6373 25.3574C14.3259 27.0445 16.6162 27.9923 19.0043 27.9923H26.5882C27.073 27.9923 27.5382 28.1834 27.8827 28.5242C28.2272 28.8649 28.4232 29.3278 28.428 29.8121V51.5727C28.4425 51.9673 28.5836 52.3467 28.8307 52.6549C29.0777 52.963 29.4175 53.1835 29.7997 53.2837C30.1819 53.3839 30.5863 53.3585 30.9529 53.2113C31.3196 53.064 31.629 52.8027 31.8355 52.4661L45.6712 27.9923L54.2891 12.7169Z" fill="#E0FBFC"/>
<path d="M47.8717 53.3964C51.5481 53.3964 54.5283 50.4188 54.5283 46.7458C54.5283 43.0728 51.5481 40.0952 47.8717 40.0952C44.1954 40.0952 41.2151 43.0728 41.2151 46.7458C41.2151 50.4188 44.1954 53.3964 47.8717 53.3964Z" fill="#E0FBFC"/>
<path d="M65.299 40.0951L73.9389 20.5366H79.3923L88.0617 40.0951H82.303L75.5323 23.2461H77.7107L70.9436 40.0951H65.299ZM70.0237 36.2937L71.4551 32.2165H81.0224L82.4501 36.2937H70.0237Z" fill="#E0FBFC"/>
<path d="M95.7412 39.3114C94.4493 39.3248 93.1748 39.0125 92.0357 38.4033C90.87 37.7947 89.8998 36.8698 89.2365 35.735C88.5732 34.6002 88.2438 33.3014 88.2861 31.988C88.252 30.6267 88.6068 29.2838 89.309 28.1167C89.9701 27.0463 90.9067 26.1728 92.021 25.5874C93.168 24.9869 94.4465 24.6812 95.7412 24.6977C96.893 24.6639 98.0339 24.9286 99.053 25.4661C99.9931 26.01 100.726 26.8506 101.136 27.8557C102.087 30.531 102.087 33.4523 101.136 36.1276C100.724 37.1345 99.9921 37.9781 99.053 38.5283C98.0373 39.076 96.8949 39.3461 95.7412 39.3114ZM96.6648 45.7671C95.2644 45.7734 93.8687 45.6042 92.5104 45.2635C91.3075 44.9797 90.1657 44.4815 89.1398 43.7929L91.0569 40.0761C91.7623 40.6173 92.5639 41.0202 93.4193 41.2636C94.3098 41.5455 95.2377 41.6917 96.1717 41.6974C97.6093 41.6974 98.6445 41.3861 99.2774 40.7636C99.9103 40.1386 100.23 39.2305 100.23 38.0357V36.2489L100.525 31.988L100.495 27.7123V24.9477H105.559V37.3225C105.559 40.1949 104.785 42.3187 103.237 43.6937C101.689 45.0686 99.4933 45.7598 96.6501 45.7671H96.6648ZM96.9997 35.1056C97.5874 35.1166 98.1687 34.9828 98.6923 34.7159C99.0577 34.5121 99.3785 34.2374 99.6361 33.908C99.8936 33.5785 100.083 33.2009 100.192 32.7974C100.301 32.3939 100.329 31.9727 100.273 31.5584C100.217 31.1441 100.079 30.7452 99.8662 30.3851C99.5815 29.925 99.1753 29.5523 98.6923 29.3079C98.1651 29.0536 97.585 28.9276 96.9997 28.9403C96.4097 28.9285 95.825 29.0543 95.2923 29.3079C94.8027 29.5483 94.3907 29.9216 94.1037 30.3851C93.8192 30.8781 93.6695 31.4373 93.6695 32.0064C93.6695 32.5755 93.8192 33.1346 94.1037 33.6277C94.3913 34.0972 94.8024 34.4787 95.2923 34.7306C95.8195 34.9842 96.4 35.1078 96.985 35.0909L96.9997 35.1056Z" fill="#E0FBFC"/>
<path d="M111.612 23.2757C110.753 23.3147 109.912 23.024 109.261 22.4632C108.979 22.2091 108.754 21.8989 108.6 21.5525C108.446 21.2061 108.366 20.8312 108.366 20.4522C108.366 20.0731 108.446 19.6983 108.6 19.3519C108.754 19.0055 108.979 18.6952 109.261 18.4412C109.912 17.8804 110.753 17.5897 111.612 17.6287C112.462 17.5895 113.297 17.8628 113.96 18.3971C114.248 18.6369 114.478 18.9388 114.633 19.28C114.787 19.6213 114.863 19.9931 114.854 20.3676C114.864 20.7571 114.791 21.1442 114.639 21.5031C114.488 21.862 114.261 22.1843 113.974 22.4485C113.325 23.0224 112.477 23.3193 111.612 23.2757ZM108.955 40.0952V24.9521H114.269V40.0952H108.955Z" fill="#E0FBFC"/>
<path d="M117.706 40.0952V19.3604H123.019V40.0952H117.706Z" fill="#E0FBFC"/>
<path d="M134.404 40.3451C132.785 40.3884 131.179 40.0443 129.72 39.3415C128.445 38.7163 127.37 37.7488 126.614 36.5474C125.869 35.3318 125.486 33.9289 125.51 32.5034C125.485 31.0817 125.857 29.6812 126.585 28.4593C127.302 27.279 128.334 26.3216 129.565 25.6947C130.864 25.0563 132.289 24.7173 133.736 24.7026C135.183 24.688 136.615 24.9981 137.926 25.6101C139.143 26.1991 140.165 27.1257 140.869 28.2792C141.634 29.5718 142.016 31.0541 141.973 32.5548C141.973 32.7387 141.973 32.9556 141.944 33.1982C141.914 33.4409 141.907 33.6614 141.889 33.8673H129.871V31.0733H139.044L137.031 31.8563C137.069 31.2375 136.942 30.6197 136.663 30.0659C136.413 29.5791 136.03 29.1726 135.56 28.8931C135.05 28.6206 134.481 28.4779 133.904 28.4779C133.326 28.4779 132.757 28.6206 132.248 28.8931C131.772 29.1739 131.389 29.5864 131.144 30.0806C130.871 30.6414 130.737 31.2589 130.75 31.8821V32.6945C130.733 33.3662 130.892 34.0307 131.214 34.621C131.519 35.161 131.983 35.5947 132.542 35.8636C133.188 36.1684 133.896 36.317 134.61 36.2974C135.264 36.3133 135.914 36.2048 136.527 35.9776C137.104 35.735 137.637 35.3997 138.106 34.9849L140.902 37.893C140.163 38.705 139.245 39.3343 138.22 39.7312C136.998 40.1753 135.703 40.3836 134.404 40.3451Z" fill="#E0FBFC"/>
<path d="M144.682 40.0951V20.5367H153.631C155.217 20.4974 156.794 20.7917 158.26 21.4006C159.477 21.9246 160.513 22.7938 161.24 23.9006C161.966 25.0578 162.335 26.403 162.3 27.7682C162.335 29.1219 161.966 30.4554 161.24 31.599C160.5 32.7054 159.456 33.5747 158.234 34.1026C156.771 34.7202 155.193 35.0197 153.605 34.9813H147.717L150.201 32.5769V40.0951H144.682ZM150.201 33.1651L147.739 30.621H153.259C154.414 30.621 155.273 30.376 155.835 29.8858C156.381 29.3193 156.685 28.5636 156.685 27.7774C156.685 26.9911 156.381 26.2354 155.835 25.6689C155.266 25.164 154.407 24.9116 153.259 24.9116H147.739L150.201 22.3712V33.1651Z" fill="#E0FBFC"/>
<path d="M169.387 40.345C168.328 40.3758 167.277 40.1659 166.311 39.731C165.524 39.3687 164.86 38.7864 164.398 38.0546C163.957 37.3415 163.728 36.5177 163.739 35.6797C163.718 34.8198 163.968 33.9751 164.453 33.2643C165.008 32.5255 165.779 31.9781 166.661 31.6981C167.896 31.297 169.192 31.1129 170.491 31.154H174.072V33.9187H171.216C170.357 33.9187 169.756 34.0584 169.413 34.3378C169.251 34.4758 169.122 34.6472 169.033 34.8401C168.944 35.0331 168.898 35.243 168.898 35.4554C168.898 35.6678 168.944 35.8777 169.033 36.0706C169.122 36.2636 169.251 36.435 169.413 36.573C169.836 36.8735 170.348 37.0213 170.866 36.9921C171.424 36.9981 171.972 36.8478 172.449 36.5583C172.94 36.2508 173.311 35.7834 173.497 35.2348L174.233 37.187C174.008 38.153 173.424 38.9977 172.6 39.5509C171.629 40.1225 170.513 40.3985 169.387 40.345ZM173.862 40.095V37.2715L173.494 36.573V31.3783C173.515 31.0177 173.457 30.6569 173.324 30.321C173.191 29.9851 172.987 29.6822 172.725 29.4334C172.21 28.9776 171.396 28.7496 170.278 28.7496C169.528 28.7541 168.784 28.8719 168.07 29.0989C167.383 29.3032 166.739 29.6295 166.167 30.0621L164.379 26.4592C165.331 25.8597 166.375 25.4212 167.47 25.1615C168.643 24.8565 169.85 24.7008 171.061 24.6982C173.515 24.6982 175.422 25.262 176.783 26.3894C178.145 27.5168 178.821 29.2815 178.811 31.6834V40.095H173.862Z" fill="#E0FBFC"/>
<path d="M192.039 24.6984C193.144 24.683 194.237 24.9273 195.23 25.4117C196.19 25.8977 196.976 26.668 197.482 27.6175C198.076 28.803 198.36 30.1198 198.306 31.4446V40.1062H192.993V32.2976C192.993 31.2216 192.773 30.4349 192.334 29.9373C192.1 29.6867 191.814 29.4909 191.496 29.3637C191.178 29.2366 190.836 29.1814 190.494 29.202C189.959 29.1943 189.43 29.3207 188.956 29.5697C188.475 29.8318 188.089 30.2381 187.852 30.7314C187.567 31.3727 187.434 32.0708 187.462 32.7718V40.0915H182.17V24.9521H187.23V29.2535L186.262 27.9962C186.789 26.9521 187.617 26.0901 188.639 25.522C189.685 24.9654 190.855 24.6821 192.039 24.6984Z" fill="#E0FBFC"/>
<path d="M200.039 29.4773V25.5104H211.031V29.4773H200.039ZM208.4 40.3447C206.462 40.3447 204.952 39.8656 203.87 38.9072C202.788 37.9489 202.247 36.5004 202.247 34.5617V21.5693H207.561V34.5066C207.548 34.7377 207.581 34.9691 207.658 35.1875C207.735 35.4058 207.854 35.6067 208.01 35.7786C208.159 35.9306 208.338 36.05 208.535 36.1291C208.733 36.2082 208.945 36.2453 209.158 36.2382C209.734 36.2553 210.301 36.0893 210.777 35.7639L212.094 39.4808C211.589 39.8001 211.029 40.0221 210.442 40.1352C209.77 40.2769 209.086 40.3472 208.4 40.3447Z" fill="#E0FBFC"/>
<path d="M224.005 24.6983C225.11 24.6832 226.203 24.9275 227.196 25.4115C228.156 25.8965 228.941 26.6672 229.444 27.6173C230.042 28.8018 230.327 30.1191 230.272 31.4444V40.106H224.958V32.2974C224.958 31.2214 224.739 30.4347 224.3 29.9371C224.066 29.6865 223.78 29.4907 223.462 29.3635C223.144 29.2364 222.802 29.1812 222.46 29.2018C221.924 29.1941 221.396 29.3205 220.922 29.5695C220.441 29.8316 220.055 30.2379 219.818 30.7312C219.532 31.3722 219.397 32.0703 219.424 32.7716V40.0913H214.133V19.3564H219.446V29.2496L218.217 27.9923C218.742 26.9475 219.571 26.0852 220.594 25.5181C221.644 24.961 222.817 24.6789 224.005 24.6983Z" fill="#E0FBFC"/>
<path d="M238.382 40.3449C237.323 40.3757 236.271 40.1658 235.306 39.731C234.518 39.3687 233.852 38.7865 233.389 38.0545C232.948 37.3415 232.719 36.5177 232.73 35.6796C232.71 34.8197 232.959 33.9751 233.444 33.2642C233.999 32.5255 234.771 31.978 235.652 31.698C236.888 31.2969 238.184 31.1128 239.482 31.1539H243.063V33.9186H240.211C239.352 33.9186 238.75 34.0583 238.404 34.3377C238.239 34.4697 238.107 34.6378 238.018 34.8291C237.928 35.0204 237.884 35.2296 237.889 35.4406C237.884 35.6531 237.93 35.8637 238.022 36.0553C238.114 36.247 238.25 36.4142 238.419 36.5435C238.842 36.8441 239.354 36.9919 239.872 36.9626C240.43 36.9692 240.978 36.8189 241.455 36.5288C241.946 36.2213 242.317 35.7539 242.503 35.2053L243.239 37.1575C243.014 38.1235 242.43 38.9682 241.606 39.5214C240.635 40.1058 239.514 40.3922 238.382 40.3449ZM242.857 40.0949V37.2715L242.489 36.573V31.3782C242.51 31.0176 242.452 30.6568 242.319 30.3209C242.186 29.985 241.982 29.6821 241.72 29.4334C241.204 28.9775 240.391 28.7496 239.273 28.7496C238.523 28.7541 237.779 28.8718 237.065 29.0988C236.379 29.3031 235.736 29.6294 235.166 30.0621L233.363 26.4739C234.315 25.8743 235.359 25.4359 236.454 25.1761C237.628 24.8709 238.836 24.7153 240.049 24.7129C242.502 24.7129 244.408 25.2766 245.767 26.404C247.126 27.5315 247.802 29.2961 247.795 31.698V40.1096L242.857 40.0949Z" fill="#E0FBFC"/>
<path d="M253.399 40.345C252.981 40.3548 252.565 40.2808 252.175 40.1273C251.786 39.9739 251.431 39.7441 251.132 39.4516C250.829 39.1593 250.59 38.8068 250.431 38.4168C250.272 38.0268 250.196 37.6079 250.209 37.187C250.189 36.7636 250.262 36.341 250.421 35.9482C250.581 35.5554 250.823 35.2017 251.132 34.9113C251.759 34.3617 252.565 34.0586 253.399 34.0586C254.233 34.0586 255.039 34.3617 255.666 34.9113C255.974 35.202 256.216 35.5559 256.375 35.9487C256.533 36.3414 256.605 36.7638 256.586 37.187C256.599 37.6077 256.524 38.0265 256.365 38.4165C256.207 38.8065 255.969 39.1591 255.666 39.4516C255.367 39.744 255.012 39.9736 254.623 40.127C254.233 40.2805 253.817 40.3546 253.399 40.345Z" fill="#E0FBFC"/>
<path d="M268.526 40.4845C267.063 40.5001 265.61 40.251 264.236 39.7492C262.968 39.2835 261.807 38.5656 260.825 37.6389C259.864 36.7258 259.098 35.6278 258.573 34.411C257.488 31.7894 257.488 28.8453 258.573 26.2237C259.098 25.0081 259.864 23.9113 260.825 22.9995C261.806 22.0716 262.967 21.3536 264.236 20.8892C265.61 20.3875 267.063 20.1384 268.526 20.154C270.193 20.1264 271.847 20.4508 273.38 21.1062C274.774 21.7129 275.999 22.6521 276.945 23.8414L273.42 27.0288C272.844 26.3302 272.136 25.7507 271.338 25.323C270.554 24.9262 269.685 24.7256 268.806 24.7384C268.052 24.7295 267.303 24.8617 266.598 25.1281C265.949 25.3756 265.363 25.7621 264.88 26.2605C264.396 26.7722 264.021 27.3761 263.776 28.0362C263.23 29.5144 263.23 31.1387 263.776 32.617C264.021 33.2765 264.397 33.8803 264.88 34.3927C265.363 34.8899 265.95 35.2752 266.598 35.5213C267.303 35.789 268.052 35.9225 268.806 35.9147C269.685 35.9282 270.554 35.7262 271.338 35.3265C272.136 34.9001 272.844 34.3219 273.42 33.6243L276.945 36.8081C275.99 37.9858 274.768 38.9196 273.38 39.5323C271.849 40.1928 270.194 40.5175 268.526 40.4845Z" fill="#E0FBFC"/>
<path d="M283.882 40.345C282.823 40.3758 281.771 40.1659 280.806 39.731C280.018 39.3687 279.352 38.7865 278.888 38.0546C278.449 37.3411 278.222 36.5174 278.233 35.6797C278.211 34.8196 278.461 33.9744 278.947 33.2643C279.503 32.5259 280.274 31.9785 281.155 31.6981C282.391 31.2976 283.687 31.1135 284.986 31.154H288.559V33.9187H285.707C284.85 33.9187 284.235 34.0584 283.904 34.3378C283.738 34.469 283.605 34.6369 283.515 34.8283C283.425 35.0197 283.38 35.2293 283.385 35.4407C283.38 35.6536 283.426 35.8646 283.519 36.0563C283.612 36.2481 283.749 36.4151 283.919 36.5436C284.346 36.8482 284.866 36.9962 285.39 36.9627C285.947 36.9702 286.495 36.8197 286.969 36.5289C287.461 36.2214 287.831 35.754 288.018 35.2054L288.754 37.1576C288.528 38.1246 287.943 38.9697 287.116 39.5215C286.143 40.1088 285.018 40.3953 283.882 40.345ZM288.356 40.095V37.2715L287.988 36.573V31.3783C288.01 31.0177 287.952 30.6569 287.819 30.321C287.686 29.9851 287.481 29.6822 287.219 29.4334C286.709 28.9776 285.893 28.7496 284.772 28.7496C284.023 28.7538 283.278 28.8716 282.564 29.0989C281.878 29.3032 281.233 29.6295 280.662 30.0621L278.874 26.4592C279.824 25.8596 280.867 25.4211 281.961 25.1615C283.135 24.8565 284.343 24.7008 285.556 24.6982C288.009 24.6982 289.915 25.262 291.274 26.3894C292.633 27.5168 293.309 29.2815 293.302 31.6834V40.095H288.356Z" fill="#E0FBFC"/>
</g>
<defs>
<clipPath id="clip0_115_530">
<rect width="283.306" height="43.3962" fill="white" transform="translate(10 10)"/>
</clipPath>
</defs>
</svg>
