<svg width="320" height="49" viewBox="0 0 320 49" fill="none" xmlns="http://www.w3.org/2000/svg">
<g clip-path="url(#clip0_107_50)">
<path d="M50.029 3.06857C50.8002 1.69613 49.8086 0 48.2336 0H10.1691C4.55634 0 0 4.55106 0 10.1574C0 15.7636 4.55634 20.3147 10.1691 20.3147H18.7374C19.8716 20.3147 20.7984 21.234 20.7984 22.3734V46.9413C20.7984 49.0583 23.6048 49.7898 24.6483 47.9512L40.2682 20.3147L50.0225 3.0621L50.029 3.06857Z" fill="#EE6C4D"/>
<path d="M42.7765 49C46.9287 49 50.2947 45.6378 50.2947 41.4904C50.2947 37.343 46.9287 33.9808 42.7765 33.9808C38.6242 33.9808 35.2582 37.343 35.2582 41.4904C35.2582 45.6378 38.6242 49 42.7765 49Z" fill="#EE6C4D"/>
<path d="M62.4601 33.9808L72.2209 11.8923H78.3781L88.1713 33.9808H81.6641L74.0227 14.9544H76.4856L68.8441 33.9808H62.4601ZM67.8007 29.6887L69.4145 25.0794H80.2188L81.8326 29.6887H67.8071H67.8007Z" fill="#3A3D40"/>
<path d="M96.8303 33.1004C95.3137 33.1004 93.9202 32.7573 92.6434 32.0775C91.3666 31.3978 90.349 30.4397 89.5777 29.2097C88.8065 27.9796 88.4241 26.523 88.4241 24.8399C88.4241 23.1567 88.8065 21.7001 89.5777 20.4701C90.349 19.2401 91.3666 18.2884 92.6434 17.6151C93.9202 16.9419 95.3137 16.6052 96.8303 16.6052C98.3469 16.6052 99.5265 16.8965 100.557 17.4727C101.588 18.0489 102.372 18.9487 102.91 20.1723C103.448 21.3893 103.713 22.9495 103.713 24.8399C103.713 26.7302 103.448 28.2904 102.91 29.5075C102.372 30.7245 101.588 31.6309 100.557 32.22C99.5265 32.8091 98.2821 33.1004 96.8303 33.1004ZM97.8738 40.3899C96.234 40.3899 94.6655 40.2021 93.1813 39.8202C91.6971 39.4447 90.4268 38.8815 89.3768 38.1499L91.5545 33.9549C92.2675 34.5246 93.1619 34.9713 94.2248 35.295C95.2878 35.6187 96.3247 35.787 97.3358 35.787C98.9561 35.787 100.129 35.431 100.842 34.7318C101.555 34.0262 101.918 33.0033 101.918 31.6568V29.6369L102.236 24.8399L102.203 20.0104V16.8901H107.92V30.867C107.92 34.1038 107.045 36.5056 105.295 38.0593C103.545 39.613 101.069 40.3963 97.8738 40.3963V40.3899ZM98.2497 28.3357C98.9626 28.3357 99.6043 28.1868 100.162 27.8955C100.719 27.6042 101.16 27.1898 101.49 26.6655C101.814 26.1411 101.983 25.5326 101.983 24.8334C101.983 24.1342 101.821 23.5322 101.49 23.0013C101.166 22.4769 100.719 22.0691 100.162 21.7842C99.6043 21.4994 98.9691 21.357 98.2497 21.357C97.5303 21.357 96.8886 21.4994 96.3247 21.7842C95.7544 22.0691 95.3072 22.4705 94.9831 23.0013C94.6591 23.5257 94.4905 24.1342 94.4905 24.8334C94.4905 25.5326 94.6526 26.1346 94.9831 26.6655C95.3072 27.1898 95.7544 27.6042 96.3247 27.8955C96.8951 28.1933 97.5367 28.3357 98.2497 28.3357Z" fill="#3A3D40"/>
<path d="M114.77 14.9868C113.675 14.9868 112.794 14.6825 112.12 14.074C111.446 13.4654 111.109 12.708 111.109 11.8017C111.109 10.8954 111.446 10.1379 112.12 9.52939C112.794 8.92086 113.675 8.61659 114.77 8.61659C115.866 8.61659 116.747 8.90791 117.421 9.48408C118.095 10.0602 118.432 10.8047 118.432 11.7111C118.432 12.6174 118.102 13.4396 117.434 14.061C116.773 14.6825 115.879 14.9933 114.764 14.9933L114.77 14.9868ZM111.77 33.9808V16.8836H117.771V33.9873H111.77V33.9808Z" fill="#3A3D40"/>
<path d="M121.66 33.9808V10.5717H127.662V33.9808H121.66Z" fill="#3A3D40"/>
<path d="M140.514 34.2657C138.492 34.2657 136.729 33.8837 135.225 33.1133C133.722 32.343 132.549 31.2942 131.719 29.9606C130.889 28.627 130.475 27.1057 130.475 25.4031C130.475 23.7005 130.883 22.1791 131.693 20.8455C132.503 19.512 133.624 18.4697 135.057 17.7252C136.489 16.9807 138.097 16.6052 139.892 16.6052C141.577 16.6052 143.113 16.9483 144.507 17.6281C145.894 18.3143 147.002 19.3177 147.825 20.6449C148.648 21.972 149.056 23.5775 149.056 25.4743C149.056 25.6879 149.043 25.9275 149.024 26.1994C149.005 26.4713 148.979 26.7237 148.959 26.9568H135.407V23.8041H145.77L143.495 24.691C143.515 23.9141 143.372 23.2408 143.068 22.6712C142.763 22.1015 142.342 21.6612 141.804 21.344C141.266 21.0268 140.637 20.8714 139.924 20.8714C139.211 20.8714 138.583 21.0268 138.045 21.344C137.507 21.6612 137.092 22.1079 136.8 22.6841C136.502 23.2603 136.36 23.94 136.36 24.7169V25.6297C136.36 26.4713 136.535 27.1963 136.878 27.8049C137.228 28.4134 137.727 28.886 138.382 29.2097C139.036 29.5334 139.814 29.7017 140.721 29.7017C141.564 29.7017 142.283 29.5787 142.886 29.3391C143.489 29.0996 144.079 28.7241 144.669 28.2192L147.825 31.5014C147.002 32.4077 145.991 33.0939 144.792 33.5665C143.593 34.0391 142.167 34.2786 140.527 34.2786L140.514 34.2657Z" fill="#3A3D40"/>
<path d="M152.109 33.9808V11.8988H162.22C164.242 11.8988 165.985 12.2225 167.45 12.8763C168.915 13.5302 170.043 14.4689 170.846 15.6989C171.644 16.9289 172.045 18.3855 172.045 20.0687C172.045 21.7519 171.644 23.1696 170.846 24.3932C170.049 25.6102 168.915 26.5554 167.45 27.2157C165.985 27.8761 164.242 28.2127 162.22 28.2127H155.583L158.363 25.5002V33.9873H152.109V33.9808ZM158.363 26.154L155.583 23.2797H161.837C163.14 23.2797 164.119 22.9948 164.761 22.4251C165.402 21.8555 165.726 21.0657 165.726 20.0622C165.726 19.0588 165.402 18.2301 164.761 17.6669C164.119 17.0972 163.147 16.8124 161.837 16.8124H155.583L158.363 13.938V26.1476V26.154Z" fill="#3A3D40"/>
<path d="M180.03 34.2657C178.663 34.2657 177.503 34.0326 176.556 33.573C175.61 33.1134 174.884 32.4789 174.392 31.6827C173.899 30.8864 173.646 29.9865 173.646 29.0025C173.646 27.9538 173.912 27.041 174.45 26.2706C174.988 25.5002 175.811 24.9111 176.932 24.5032C178.047 24.0954 179.492 23.8882 181.262 23.8882H185.306V27.0086H182.085C181.119 27.0086 180.439 27.164 180.05 27.4812C179.661 27.7984 179.467 28.2192 179.467 28.7436C179.467 29.2679 179.667 29.6887 180.069 30.0059C180.471 30.3232 181.016 30.4785 181.709 30.4785C182.364 30.4785 182.96 30.3167 183.491 29.9865C184.029 29.6628 184.425 29.1644 184.677 28.4911L185.501 30.6986C185.183 31.8769 184.567 32.7638 183.653 33.3658C182.74 33.9679 181.534 34.2657 180.037 34.2657H180.03ZM185.086 33.9808V30.7957L184.677 30.0059V24.1342C184.677 23.1891 184.386 22.4575 183.809 21.9396C183.232 21.4217 182.305 21.1692 181.048 21.1692C180.225 21.1692 179.395 21.2987 178.553 21.5641C177.71 21.8296 176.997 22.1921 176.407 22.6517L174.385 18.5797C175.351 17.9453 176.518 17.4598 177.879 17.1102C179.24 16.7606 180.588 16.5923 181.936 16.5923C184.716 16.5923 186.868 17.2267 188.398 18.502C189.921 19.7774 190.686 21.7648 190.686 24.4838V33.9808H185.092H185.086Z" fill="#3A3D40"/>
<path d="M205.619 16.5988C206.947 16.5988 208.146 16.8642 209.222 17.4015C210.298 17.9388 211.147 18.761 211.763 19.881C212.385 20.9944 212.696 22.4381 212.696 24.2054V33.9873H206.694V25.183C206.694 23.9659 206.448 23.0725 205.949 22.5158C205.456 21.959 204.763 21.6807 203.882 21.6807C203.246 21.6807 202.67 21.8231 202.145 22.1079C201.62 22.3928 201.205 22.8265 200.913 23.4156C200.621 24.0048 200.472 24.7751 200.472 25.7203V33.9873H194.471V16.8836H200.187V21.7454L199.079 20.3276C199.734 19.0847 200.628 18.1589 201.762 17.5375C202.896 16.916 204.186 16.6052 205.619 16.6052V16.5988Z" fill="#3A3D40"/>
<path d="M214.653 21.9914V17.5116H227.065V21.9914H214.653ZM224.097 34.2657C221.906 34.2657 220.201 33.7219 218.976 32.6408C217.751 31.5596 217.142 29.9218 217.142 27.7336V13.0641H223.144V27.6754C223.144 28.2839 223.312 28.763 223.649 29.1126C223.986 29.4621 224.421 29.6305 224.946 29.6305C225.659 29.6305 226.274 29.4492 226.78 29.0931L228.264 33.2881C227.759 33.6248 227.136 33.8708 226.397 34.0326C225.659 34.188 224.894 34.2722 224.09 34.2722L224.097 34.2657Z" fill="#3A3D40"/>
<path d="M241.726 16.5988C243.054 16.5988 244.253 16.8642 245.329 17.4015C246.405 17.9388 247.254 18.761 247.87 19.881C248.492 20.9944 248.803 22.4381 248.803 24.2054V33.9873H242.802V25.183C242.802 23.9659 242.555 23.0725 242.056 22.5158C241.564 21.959 240.87 21.6807 239.989 21.6807C239.354 21.6807 238.777 21.8231 238.252 22.1079C237.727 22.3928 237.312 22.8265 237.02 23.4156C236.729 24.0048 236.58 24.7751 236.58 25.7203V33.9873H230.578V10.5717H236.58V21.7389L235.193 20.3212C235.847 19.0782 236.742 18.1525 237.876 17.531C239.01 16.9095 240.3 16.5988 241.732 16.5988H241.726Z" fill="#3A3D40"/>
<path d="M257.961 34.2657C256.594 34.2657 255.434 34.0326 254.487 33.573C253.541 33.1134 252.815 32.4789 252.323 31.6827C251.83 30.8864 251.577 29.9865 251.577 29.0025C251.577 27.9538 251.843 27.041 252.381 26.2706C252.919 25.5002 253.742 24.9111 254.863 24.5032C255.978 24.0954 257.423 23.8882 259.193 23.8882H263.237V27.0086H260.016C259.05 27.0086 258.37 27.164 257.981 27.4812C257.592 27.7984 257.397 28.2192 257.397 28.7436C257.397 29.2679 257.598 29.6887 258 30.0059C258.402 30.3232 258.946 30.4785 259.64 30.4785C260.295 30.4785 260.891 30.3167 261.422 29.9865C261.96 29.6628 262.356 29.1644 262.608 28.4911L263.431 30.6986C263.114 31.8769 262.498 32.7638 261.584 33.3658C260.67 33.9679 259.465 34.2657 257.968 34.2657H257.961ZM263.017 33.9808V30.7957L262.608 30.0059V24.1342C262.608 23.1891 262.317 22.4575 261.74 21.9396C261.163 21.4217 260.236 21.1692 258.979 21.1692C258.156 21.1692 257.326 21.2987 256.484 21.5641C255.641 21.8296 254.928 22.1921 254.338 22.6517L252.316 18.5797C253.282 17.9453 254.448 17.4598 255.809 17.1102C257.171 16.7606 258.519 16.5923 259.867 16.5923C262.647 16.5923 264.799 17.2267 266.329 18.502C267.852 19.7774 268.616 21.7648 268.616 24.4838V33.9808H263.023H263.017Z" fill="#3A3D40"/>
<path d="M274.923 34.2657C273.912 34.2657 273.056 33.9291 272.363 33.2558C271.669 32.5825 271.319 31.728 271.319 30.6986C271.319 29.6693 271.669 28.7695 272.363 28.1285C273.056 27.4876 273.912 27.164 274.923 27.164C275.934 27.164 276.789 27.4876 277.483 28.1285C278.176 28.7695 278.526 29.6305 278.526 30.6986C278.526 31.7668 278.176 32.5825 277.483 33.2558C276.789 33.9291 275.934 34.2657 274.923 34.2657Z" fill="#3A3D40"/>
<path d="M292.014 34.4275C290.264 34.4275 288.65 34.1492 287.166 33.5924C285.682 33.0357 284.398 32.2394 283.309 31.2101C282.227 30.1807 281.378 28.9637 280.769 27.5653C280.16 26.167 279.855 24.6262 279.855 22.943C279.855 21.2599 280.16 19.7191 280.769 18.3208C281.378 16.9224 282.227 15.7054 283.309 14.676C284.392 13.6467 285.682 12.8504 287.166 12.2937C288.65 11.7369 290.264 11.4586 292.014 11.4586C294.055 11.4586 295.883 11.8146 297.497 12.5332C299.111 13.2453 300.452 14.2811 301.522 15.6277L297.542 19.2271C296.829 18.3855 296.039 17.7446 295.19 17.3044C294.334 16.8642 293.381 16.6441 292.331 16.6441C291.424 16.6441 290.594 16.793 289.836 17.0843C289.078 17.3821 288.43 17.8029 287.892 18.3596C287.354 18.9164 286.933 19.5832 286.628 20.36C286.323 21.1369 286.168 21.9979 286.168 22.9495C286.168 23.9012 286.323 24.7557 286.628 25.539C286.933 26.3159 287.354 26.9827 287.892 27.5394C288.43 28.0962 289.078 28.5234 289.836 28.8148C290.594 29.1061 291.424 29.255 292.331 29.255C293.381 29.255 294.334 29.0349 295.19 28.5947C296.045 28.1544 296.829 27.5135 297.542 26.6719L301.522 30.2714C300.446 31.5985 299.104 32.6213 297.497 33.3464C295.883 34.0715 294.062 34.434 292.014 34.434V34.4275Z" fill="#3A3D40"/>
<path d="M309.351 34.2657C307.984 34.2657 306.824 34.0326 305.877 33.573C304.931 33.1134 304.205 32.4789 303.713 31.6827C303.22 30.8864 302.967 29.9865 302.967 29.0025C302.967 27.9538 303.233 27.041 303.771 26.2706C304.309 25.5002 305.132 24.9111 306.253 24.5032C307.368 24.0954 308.813 23.8882 310.583 23.8882H314.627V27.0086H311.406C310.44 27.0086 309.76 27.164 309.371 27.4812C308.982 27.7984 308.787 28.2192 308.787 28.7436C308.787 29.2679 308.988 29.6887 309.39 30.0059C309.792 30.3232 310.336 30.4785 311.03 30.4785C311.685 30.4785 312.281 30.3167 312.812 29.9865C313.35 29.6628 313.746 29.1644 313.998 28.4911L314.822 30.6986C314.504 31.8769 313.888 32.7638 312.974 33.3658C312.061 33.9679 310.855 34.2657 309.358 34.2657H309.351ZM314.407 33.9808V30.7957L313.998 30.0059V24.1342C313.998 23.1891 313.707 22.4575 313.13 21.9396C312.553 21.4217 311.626 21.1692 310.369 21.1692C309.546 21.1692 308.716 21.2987 307.874 21.5641C307.031 21.8296 306.318 22.1921 305.728 22.6517L303.706 18.5797C304.672 17.9453 305.838 17.4598 307.2 17.1102C308.561 16.7606 309.909 16.5923 311.257 16.5923C314.037 16.5923 316.189 17.2267 317.719 18.502C319.242 19.7774 320.007 21.7648 320.007 24.4838V33.9808H314.413H314.407Z" fill="#3A3D40"/>
</g>
<defs>
<clipPath id="clip0_107_50">
<rect width="320" height="49" fill="white"/>
</clipPath>
</defs>
</svg>
