<svg width="87" height="87" viewBox="0 0 87 87" fill="none" xmlns="http://www.w3.org/2000/svg">
<path d="M63.6829 41.0857C76.1629 41.0857 86.28 51.2028 86.28 63.6829C86.28 76.1629 76.1629 86.28 63.6829 86.28C51.2028 86.28 41.0857 76.1629 41.0857 63.6829C41.0857 51.2028 51.2028 41.0857 63.6829 41.0857ZM63.6829 49.2997L63.3136 49.3328C62.4751 49.485 61.8139 50.1462 61.6617 50.9847L61.6286 51.354L61.6271 61.6254L51.3475 61.6286L50.9782 61.6617C50.1397 61.8139 49.4785 62.4751 49.3263 63.3136L49.2932 63.6829L49.3263 64.0521C49.4785 64.8907 50.1397 65.5518 50.9782 65.704L51.3475 65.7371L61.6312 65.734L61.6331 76.0229L61.6662 76.3922C61.8184 77.2307 62.4796 77.8919 63.3181 78.0441L63.6874 78.0772L64.0567 78.0441C64.8952 77.8919 65.5564 77.2307 65.7086 76.3922L65.7417 76.0229L65.7398 65.734L76.0273 65.7371L76.3966 65.704C77.2351 65.5518 77.8963 64.8907 78.0485 64.0521L78.0816 63.6829L78.0485 63.3136C77.8963 62.4751 77.2351 61.8139 76.3966 61.6617L76.0273 61.6286L65.7357 61.6254L65.7371 51.354L65.704 50.9847C65.5518 50.1462 64.8907 49.485 64.0521 49.3328L63.6829 49.2997ZM41.1759 49.302C38.5181 53.4531 36.9771 58.388 36.9771 63.6829C36.9771 67.3141 37.7019 70.776 39.0146 73.932C28.5219 73.3681 22.5971 68.9135 22.5971 60.6014V56.4929C22.5971 52.5219 25.8162 49.3029 29.7871 49.3029L41.1759 49.302ZM25.1691 28.7603C24.8312 30.0734 24.6514 31.45 24.6514 32.8686C24.6514 37.4518 26.5276 41.5969 29.5538 44.5776L30.2196 45.1982L29.7871 45.1943C28.549 45.1943 27.3575 45.3934 26.2427 45.7614C22.6898 46.9343 19.9169 49.8222 18.9044 53.445L18.763 53.4486C6.81144 53.4486 0 48.9709 0 40.0586V35.95C0 32.1776 2.90521 29.0838 6.60031 28.7838L7.19 28.76L25.1691 28.7603ZM41.0857 20.5429C47.893 20.5429 53.4114 26.0613 53.4114 32.8686C53.4114 39.6759 47.893 45.1943 41.0857 45.1943C34.2784 45.1943 28.76 39.6759 28.76 32.8686C28.76 26.0613 34.2784 20.5429 41.0857 20.5429ZM74.9814 28.76C78.9524 28.76 82.1714 31.9791 82.1714 35.95L82.1671 39.9027C82.2478 41.4182 82.1251 42.8075 81.8078 44.0701C77.0433 39.6659 70.6771 36.9771 63.6829 36.9771C61.2781 36.9771 58.9476 37.295 56.731 37.891C57.2452 36.3126 57.52 34.6227 57.52 32.8686C57.52 31.45 57.3403 30.0734 57.0023 28.7603L74.9814 28.76ZM18.4886 0C25.2959 0 30.8143 5.51841 30.8143 12.3257C30.8143 19.133 25.2959 24.6514 18.4886 24.6514C11.6813 24.6514 6.16286 19.133 6.16286 12.3257C6.16286 5.51841 11.6813 0 18.4886 0ZM63.6829 0C70.4902 0 76.0086 5.51841 76.0086 12.3257C76.0086 19.133 70.4902 24.6514 63.6829 24.6514C56.8756 24.6514 51.3571 19.133 51.3571 12.3257C51.3571 5.51841 56.8756 0 63.6829 0Z" fill="#293241"/>
</svg>
