<svg width="37" height="37" viewBox="0 0 37 37" fill="none" xmlns="http://www.w3.org/2000/svg">
<path d="M31.3121 11.8918C31.0752 11.8444 30.8975 11.8207 30.779 11.8207C29.9023 11.8207 29.1441 12.1168 28.5043 12.7092C27.059 12.0695 25.7084 11.5482 24.4526 11.1454C22.3912 10.4819 20.235 9.93697 17.984 9.51047C17.7708 8.9418 17.4509 8.46792 17.0244 8.08881C17.6168 5.29287 18.4105 2.75757 19.4057 0.48291C22.3912 0.69616 25.1338 1.561 27.6336 3.07744C30.1333 4.59388 32.1533 6.58421 33.6934 9.04843C32.8167 9.9962 32.023 10.944 31.3121 11.8918ZM14.8208 7.27135C14.2048 7.27135 13.6243 7.43721 13.0793 7.76893C11.1601 6.34727 9.22896 5.13886 7.28602 4.14369C10.2241 1.91642 13.5176 0.69616 17.1666 0.48291C16.2425 2.54432 15.4961 4.80713 14.9275 7.27135H14.8208ZM2.48791 9.47493C3.29352 8.12435 4.31238 6.84485 5.54449 5.63644C7.1557 6.46574 8.82616 7.4846 10.5558 8.69301C7.49927 8.62193 4.80996 8.88257 2.48791 9.47493ZM11.4088 10.8966C11.4562 11.6311 11.7109 12.2768 12.173 12.8336C12.635 13.3904 13.2096 13.7636 13.8968 13.9532C13.7546 15.6118 13.6835 17.1874 13.6835 18.6802C13.6835 19.7227 13.719 20.9193 13.7901 22.2699C13.2689 22.4358 12.8068 22.7201 12.404 23.1229C11.1245 22.6253 9.8924 22.0566 8.70769 21.4169C8.96832 20.8956 9.09864 20.3625 9.09864 19.8175C9.09864 18.8697 8.76692 18.0641 8.10348 17.4007C7.44004 16.7373 6.63443 16.4055 5.68665 16.4055C4.6441 16.4055 3.77925 16.8083 3.09212 17.6139C2.09695 16.7136 1.20841 15.7776 0.426499 14.8062C0.639748 13.7873 0.959622 12.7803 1.38612 11.7851C4.27684 10.9795 7.61774 10.6833 11.4088 10.8966ZM2.3102 20.1019C2.38129 20.9785 2.74262 21.719 3.39422 22.3232C4.04582 22.9274 4.80996 23.2295 5.68665 23.2295C5.94729 23.2295 6.23162 23.1821 6.53965 23.0873C8.05609 23.964 9.67915 24.7223 11.4088 25.362V25.5042C11.4088 26.4283 11.7228 27.2161 12.3507 27.8677C12.9786 28.5193 13.7546 28.8688 14.6787 28.9162C15.271 31.8069 16.1003 34.4488 17.1666 36.8419C14.7971 36.6998 12.558 36.1252 10.4492 35.1182C8.34042 34.1112 6.52188 32.802 4.99359 31.1908C3.4653 29.5796 2.25097 27.6841 1.35058 25.5042C0.450193 23.3243 0 21.0496 0 18.6802C0 18.6565 0.0118472 18.3366 0.0355416 17.7206C0.698984 18.5499 1.4572 19.3436 2.3102 20.1019ZM17.8063 27.1035C19.5123 27.4116 21.2302 27.613 22.9599 27.7078C23.1257 28.1816 23.3864 28.62 23.7418 29.0228C23.1968 31.5107 22.8651 33.9275 22.7466 36.2733C21.5382 36.5813 20.4246 36.7709 19.4057 36.8419C18.2921 34.3066 17.4272 31.4396 16.8112 28.2409C17.2377 27.9565 17.5694 27.5774 17.8063 27.1035ZM28.8242 28.8095C29.1322 28.4304 29.3455 28.0276 29.464 27.6011C31.1937 27.459 32.8641 27.2339 34.4753 26.9258C33.338 29.1531 31.7742 31.0842 29.7838 32.7191C29.5706 31.487 29.2507 30.1838 28.8242 28.8095ZM23.0309 25.4331C21.3723 25.3383 19.7374 25.1251 18.1262 24.7933C17.8656 23.6086 17.1903 22.7912 16.1003 22.341C16.0056 20.943 15.9582 19.7227 15.9582 18.6802C15.9582 17.1164 16.0292 15.4933 16.1714 13.811C16.2188 13.811 16.278 13.7873 16.3491 13.7399C16.4202 13.6925 16.4676 13.6688 16.4913 13.6688C17.4154 14.5692 18.221 15.3985 18.9081 16.1567C20.9695 18.4314 22.7229 21.0141 24.1683 23.9048C23.647 24.3076 23.2679 24.817 23.0309 25.4331ZM26.1941 30.0535C26.2415 30.0535 26.3718 30.0416 26.5851 30.018C26.9879 31.4633 27.2841 32.8968 27.4736 34.3185C26.7865 34.7213 25.9572 35.1241 24.9857 35.5269C25.1516 33.6787 25.4359 31.8424 25.8387 30.018C26.0283 30.0416 26.1467 30.0535 26.1941 30.0535ZM26.0164 21.5591C25.9927 21.6064 25.9631 21.6775 25.9276 21.7723C25.892 21.8671 25.8624 21.9382 25.8387 21.9856C24.346 19.2844 22.5926 16.832 20.5786 14.6285C19.844 13.7992 18.9674 12.8988 17.9485 11.9273C17.9722 11.9273 17.99 11.9095 18.0018 11.874L18.0196 11.8207C20.0099 12.2235 21.9173 12.7211 23.7418 13.3134C24.8554 13.6688 26.0757 14.1427 27.4026 14.7351C27.3552 14.972 27.3315 15.1497 27.3315 15.2682C27.3315 15.979 27.5447 16.6306 27.9712 17.223C27.1893 18.7157 26.5377 20.1611 26.0164 21.5591ZM27.6869 23.6205C27.9712 22.7912 28.1134 22.3647 28.1134 22.341C28.5873 21.1563 29.1796 19.8886 29.8905 18.538C30.1985 18.6328 30.4947 18.6802 30.779 18.6802C31.5846 18.6802 32.3073 18.4077 32.947 17.8627C34.1081 18.6683 35.2454 19.5687 36.359 20.5639C36.2169 21.9145 35.9325 23.2177 35.506 24.4735C33.5631 24.8763 31.5135 25.1606 29.3573 25.3265C29.0493 24.5682 28.4925 23.9996 27.6869 23.6205ZM34.191 15.2327C34.191 14.4507 33.9304 13.7399 33.4091 13.1002C33.9067 12.4604 34.4042 11.8799 34.9018 11.3586C35.7548 13.3016 36.2524 15.3037 36.3946 17.3652C35.6127 16.7728 34.8544 16.2397 34.1199 15.7658C34.1673 15.5525 34.191 15.3748 34.191 15.2327Z" fill="#293241"/>
</svg>
