<svg width="20" height="20" viewBox="0 0 20 20" fill="none" xmlns="http://www.w3.org/2000/svg">
<path d="M19.8689 10.2281C19.8698 9.54663 19.8117 8.8664 19.6955 8.19482H10.1997V12.046H15.6385C15.5272 12.6611 15.2916 13.2475 14.946 13.7697C14.6004 14.292 14.1518 14.7393 13.6274 15.0848V17.5846H16.8733C18.7739 15.8444 19.8689 13.271 19.8689 10.2281Z" fill="#4285F4"/>
<path d="M10.1998 20C12.9171 20 15.205 19.1139 16.8734 17.5862L13.6275 15.0864C12.7241 15.6947 11.5605 16.0419 10.1998 16.0419C7.5734 16.0419 5.3442 14.2836 4.54706 11.9143H1.20325V14.4906C2.04132 16.1467 3.32641 17.5389 4.91506 18.5118C6.5037 19.4847 8.33336 19.9999 10.1998 20Z" fill="#34A853"/>
<path d="M4.54698 11.914C4.12556 10.6724 4.12556 9.32793 4.54698 8.08639V5.51013H1.20317C0.498154 6.90333 0.130981 8.44096 0.130981 10.0002C0.130981 11.5594 0.498154 13.097 1.20317 14.4902L4.54698 11.914Z" fill="#FBBC04"/>
<path d="M10.1998 3.95879C11.6357 3.93549 13.0233 4.47429 14.0624 5.45872L16.9363 2.60469C15.114 0.904883 12.6998 -0.0283412 10.1998 0.000656061C8.33336 0.000740536 6.5037 0.515984 4.91506 1.48886C3.32641 2.46174 2.04132 3.85397 1.20325 5.5101L4.54706 8.08636C5.3442 5.71704 7.5734 3.95879 10.1998 3.95879Z" fill="#EA4335"/>
</svg>
