<svg width="47" height="47" viewBox="0 0 47 47" fill="none" xmlns="http://www.w3.org/2000/svg">
<path fill-rule="evenodd" clip-rule="evenodd" d="M2.93733 23.674C2.93733 29.0114 5.10363 34.1303 8.95967 37.9044C12.8157 41.6786 18.0456 43.7989 23.4989 43.7989C28.9521 43.7989 34.1821 41.6786 38.0381 37.9044C41.8941 34.1303 44.0604 29.0114 44.0604 23.674C44.0604 18.3365 41.8941 13.2177 38.0381 9.44351C34.1821 5.66935 28.9521 3.54906 23.4989 3.54906C18.0456 3.54906 12.8157 5.66935 8.95967 9.4435C5.10363 13.2177 2.93733 18.3365 2.93733 23.674ZM-3.91877e-05 23.674C-3.94638e-05 29.7739 2.47573 35.624 6.88264 39.9373C11.2895 44.2507 17.2666 46.6738 23.4989 46.6738C29.7312 46.6739 35.7082 44.2507 40.1151 39.9373C44.522 35.624 46.9978 29.7739 46.9978 23.674C46.9978 17.574 44.522 11.7239 40.1151 7.41058C35.7082 3.09727 29.7312 0.674072 23.4989 0.674071C17.2666 0.674071 11.2895 3.09727 6.88264 7.41058C2.47573 11.7239 -3.89117e-05 17.574 -3.91877e-05 23.674Z" fill="black"/>
<path fill-rule="evenodd" clip-rule="evenodd" d="M23.499 12.1741C23.1095 12.1741 22.736 12.3255 22.4605 12.5951C22.1851 12.8647 22.0304 13.2303 22.0304 13.6116L22.0304 30.2664L15.7268 24.0938C15.5902 23.9601 15.4281 23.8541 15.2497 23.7818C15.0713 23.7094 14.8801 23.6722 14.687 23.6722C14.4938 23.6722 14.3026 23.7094 14.1242 23.7818C13.9458 23.8541 13.7837 23.9601 13.6471 24.0938C13.5106 24.2274 13.4023 24.3861 13.3283 24.5607C13.2544 24.7353 13.2164 24.9225 13.2164 25.1115C13.2164 25.3005 13.2544 25.4877 13.3283 25.6623C13.4023 25.8369 13.5106 25.9956 13.6471 26.1293L22.4592 34.7542C22.5956 34.8881 22.7577 34.9943 22.9361 35.0668C23.1146 35.1392 23.3059 35.1765 23.499 35.1765C23.6922 35.1765 23.8835 35.1392 24.0619 35.0668C24.2404 34.9943 24.4024 34.8881 24.5389 34.7542L33.351 26.1293C33.4875 25.9956 33.5958 25.8369 33.6697 25.6623C33.7436 25.4877 33.7817 25.3005 33.7817 25.1115C33.7817 24.9225 33.7436 24.7353 33.6697 24.5607C33.5958 24.3861 33.4875 24.2274 33.351 24.0938C33.2144 23.9601 33.0523 23.8541 32.8739 23.7818C32.6955 23.7094 32.5043 23.6722 32.3111 23.6722C32.118 23.6722 31.9268 23.7094 31.7484 23.7818C31.57 23.8541 31.4079 23.9601 31.2713 24.0938L24.9677 30.2664L24.9677 13.6116C24.9677 13.2303 24.813 12.8647 24.5376 12.5951C24.2621 12.3255 23.8886 12.1741 23.499 12.1741Z" fill="black"/>
</svg>
