<svg width="37" height="37" viewBox="0 0 37 37" fill="none" xmlns="http://www.w3.org/2000/svg">
<path d="M5.19922 5.68213C5.19922 2.81068 7.52699 0.48291 10.3984 0.48291C13.2699 0.48291 15.5977 2.81068 15.5977 5.68213C15.5977 7.35826 14.8045 8.84914 13.5731 9.79992C13.536 9.82724 13.4992 9.8549 13.4627 9.88285C12.6034 10.5107 11.5442 10.8814 10.3984 10.8814C7.52699 10.8814 5.19922 8.55359 5.19922 5.68213ZM10.3984 3.08252C8.96273 3.08252 7.79883 4.24642 7.79883 5.68213C7.79883 7.11785 8.96273 8.28175 10.3984 8.28175C11.8342 8.28175 12.9981 7.11785 12.9981 5.68213C12.9981 4.24642 11.8342 3.08252 10.3984 3.08252Z" fill="#293241"/>
<path d="M22.8215 9.79992C21.59 8.84914 20.7969 7.35826 20.7969 5.68213C20.7969 2.81068 23.1246 0.48291 25.9961 0.48291C28.8676 0.48291 31.1953 2.81068 31.1953 5.68213C31.1953 8.55359 28.8676 10.8814 25.9961 10.8814C24.8505 10.8814 23.7911 10.5108 22.9319 9.88287C22.8953 9.8549 22.8585 9.82724 22.8215 9.79992ZM25.9961 3.08252C24.5603 3.08252 23.3965 4.24642 23.3965 5.68213C23.3965 7.11785 24.5603 8.28175 25.9961 8.28175C27.4319 8.28175 28.5957 7.11785 28.5957 5.68213C28.5957 4.24642 27.4319 3.08252 25.9961 3.08252Z" fill="#293241"/>
<path d="M3.89937 13.481H10.8422C10.5548 14.2941 10.3984 15.169 10.3984 16.0806H3.89937C3.18159 16.0806 2.59961 16.6625 2.59961 17.3804C2.59961 19.504 3.44326 21.0789 4.77835 22.1505C5.39222 22.6433 6.12739 23.0423 6.95843 23.3323C6.3548 23.9756 5.88061 24.7417 5.57739 25.5889C4.69362 25.2294 3.87597 24.7596 3.15112 24.1778C1.19314 22.6063 0 20.2818 0 17.3804C0 15.2269 1.7458 13.481 3.89937 13.481Z" fill="#293241"/>
<path d="M13.6936 13.481C13.2512 14.2457 12.998 15.1336 12.998 16.0806C12.998 18.2734 14.3556 20.1493 16.2762 20.9134C16.8705 21.1498 17.5187 21.2798 18.1973 21.2798C18.8758 21.2798 19.5241 21.1498 20.1184 20.9134C22.0389 20.1492 23.3965 18.2734 23.3965 16.0806C23.3965 15.1336 23.1433 14.2457 22.7009 13.481C21.802 11.9269 20.1217 10.8813 18.1973 10.8813C16.2728 10.8813 14.5926 11.9269 13.6936 13.481ZM17.614 13.5467C17.8015 13.5037 17.9967 13.481 18.1973 13.481C18.3978 13.481 18.593 13.5037 18.7805 13.5467C19.9354 13.8114 20.7969 14.8454 20.7969 16.0806C20.7969 16.2811 20.7742 16.4763 20.7312 16.6638C20.4664 17.8187 19.4325 18.6802 18.1973 18.6802C16.9621 18.6802 15.9281 17.8187 15.6634 16.6638C15.6204 16.4764 15.5977 16.2811 15.5977 16.0806C15.5977 14.8454 16.4591 13.8114 17.614 13.5467Z" fill="#293241"/>
<path d="M31.6166 22.1505C31.0028 22.6433 30.2677 23.0423 29.4366 23.3323C30.0402 23.9756 30.5144 24.7417 30.8175 25.5889C31.7013 25.2294 32.5189 24.7596 33.2439 24.1778C35.2017 22.6063 36.3949 20.2818 36.3949 17.3804C36.3949 15.2268 34.649 13.481 32.4955 13.481H25.5527C25.84 14.2941 25.9965 15.169 25.9965 16.0806H32.4955C33.2133 16.0806 33.7953 16.6625 33.7953 17.3804C33.7953 19.504 32.9517 21.0789 31.6166 22.1505Z" fill="#293241"/>
<path d="M24.6963 23.8794C26.3234 23.8794 27.7176 24.8758 28.3022 26.2918C28.4912 26.7501 28.5957 27.2524 28.5957 27.7788C28.5957 30.6802 27.4025 33.0048 25.4447 34.5763C23.5176 36.123 20.9349 36.8775 18.1973 36.8775C15.4597 36.8775 12.877 36.123 10.9499 34.5763C8.99197 33.0048 7.79883 30.6802 7.79883 27.7788C7.79883 27.2524 7.9032 26.7501 8.09238 26.2918C8.67692 24.8758 10.0712 23.8794 11.6982 23.8794H24.6963ZM24.6963 26.479H11.6982C10.9804 26.479 10.3984 27.0611 10.3984 27.7788C10.3984 29.9024 11.2421 31.4773 12.5772 32.5488C13.9432 33.6454 15.9098 34.2778 18.1973 34.2778C20.4847 34.2778 22.4513 33.6454 23.8174 32.5488C25.1525 31.4773 25.9961 29.9024 25.9961 27.7788C25.9961 27.0611 25.4141 26.479 24.6963 26.479Z" fill="#293241"/>
</svg>
