<svg width="87" height="83" viewBox="0 0 87 83" fill="none" xmlns="http://www.w3.org/2000/svg">
<path d="M30.8143 51.3571C30.8143 57.0321 26.2178 61.6285 20.5429 61.6285C14.8679 61.6285 10.2714 57.0321 10.2714 51.3571C10.2714 45.6822 14.8679 41.0857 20.5429 41.0857C26.2178 41.0857 30.8143 45.6822 30.8143 51.3571Z" fill="#293241"/>
<path d="M0 76.6932C0 69.4075 13.6867 65.7371 20.5429 65.7371C27.399 65.7371 41.0857 69.4075 41.0857 76.6932V82.1714H0V76.6932Z" fill="#293241"/>
<path d="M76.0086 51.3571C76.0086 57.0321 71.4121 61.6285 65.7371 61.6285C60.0622 61.6285 55.4657 57.0321 55.4657 51.3571C55.4657 45.6822 60.0622 41.0857 65.7371 41.0857C71.4121 41.0857 76.0086 45.6822 76.0086 51.3571Z" fill="#293241"/>
<path d="M51.3571 49.3028C51.3571 53.8428 47.68 57.52 43.14 57.52C38.6 57.52 34.9229 53.8428 34.9229 49.3028C34.9229 44.7629 38.6 41.0857 43.14 41.0857C47.68 41.0857 51.3571 44.7629 51.3571 49.3028Z" fill="#293241"/>
<path d="M45.1943 76.6932C45.1943 69.4075 58.881 65.7371 65.7371 65.7371C72.5933 65.7371 86.28 69.4075 86.28 76.6932V82.1714H45.1943V76.6932Z" fill="#293241"/>
<path fill-rule="evenodd" clip-rule="evenodd" d="M52.8995 64.0629C52.3512 64.2644 51.8103 64.4785 51.2801 64.7048C48.8743 65.733 46.4449 67.1219 44.5574 68.9798C44.0521 69.4776 43.5724 70.0232 43.14 70.616C42.7076 70.0232 42.2279 69.4776 41.7223 68.9798C39.8351 67.1219 37.4054 65.733 34.9997 64.7048C34.4697 64.4785 33.9288 64.2644 33.3803 64.0629C36.5081 62.4422 40.5306 61.6285 43.14 61.6285C45.7491 61.6285 49.7716 62.4422 52.8995 64.0629V64.0629Z" fill="#293241"/>
<path fill-rule="evenodd" clip-rule="evenodd" d="M33.0613 30.8143C43.8395 30.8143 52.577 23.9162 52.577 15.4071C52.577 6.898 43.8395 0 33.0613 0C22.283 0 13.5456 6.898 13.5456 15.4071C13.5456 17.4742 14.0611 19.4461 14.9963 21.2471C12.9308 23.7788 12.4249 27.6119 12.3266 30.0211C12.2908 30.8979 13.3495 31.3463 14.0524 30.8211C15.4622 29.7674 17.7012 28.3385 20.6096 27.2713C23.9885 29.4841 28.3282 30.8143 33.0613 30.8143V30.8143Z" fill="#293241"/>
<path fill-rule="evenodd" clip-rule="evenodd" d="M48.0028 30.538C53.3137 26.9594 56.7053 21.5104 56.7053 15.4071C56.7053 13.7652 56.4599 12.1705 55.9976 10.647C57.2099 10.4017 58.4792 10.2714 59.7868 10.2714C68.2958 10.2714 75.1939 15.7899 75.1939 22.5971C75.1939 24.5454 74.629 26.3879 73.6228 28.026C74.5729 29.6353 74.9106 31.6532 75.0203 33.1716C75.0834 34.0467 74.0242 34.5056 73.305 34.0027C72.4149 33.3803 71.2026 32.6486 69.7147 32.0232C67.0333 33.8324 63.5691 34.9229 59.7868 34.9229C55.0593 34.9229 50.8289 33.2194 48.0028 30.538Z" fill="#293241"/>
</svg>
