<svg width="87" height="86" viewBox="0 0 87 86" fill="none" xmlns="http://www.w3.org/2000/svg">
<path d="M43.141 83.7266C20.3037 83.7266 1.72656 65.3313 1.72656 42.7177C1.72656 20.104 20.3037 1.70874 43.141 1.70874C65.9782 1.70874 84.5554 20.104 84.5554 42.7177C84.5554 65.3313 65.9782 83.7266 43.141 83.7266ZM41.4828 81.7696C42.0328 81.7936 42.5855 81.8043 43.141 81.8043C55.9239 81.8043 67.3074 75.7571 74.5253 66.3993V32.0596H76.4693V63.6466C80.3573 57.5914 82.6141 50.4122 82.6141 42.7177C82.6141 37.3806 81.5302 32.2946 79.5673 27.657L49.5122 10.4765L50.4829 8.81055L78.1167 24.6081C72.2551 13.5522 61.2031 5.60138 48.1856 3.94875L18.1279 21.1346L17.1572 19.4686L44.7992 3.66574C44.2518 3.64171 43.6964 3.63103 43.141 3.63103C30.358 3.63103 18.9745 9.68092 11.7566 19.0388V53.3784H9.81531V21.7887C5.92462 27.8439 3.66786 35.0258 3.66786 42.7177C3.66786 48.052 4.75175 53.1381 6.71462 57.7783L36.7697 74.9615L35.7991 76.6248L8.16521 60.8246C14.0269 71.8831 25.0788 79.834 38.0963 81.4866L68.1541 64.3008L69.122 65.9641L41.4828 81.7696ZM30.6088 63.1794C30.4416 63.1794 30.2745 63.134 30.1235 63.0486C29.8053 62.8697 29.6166 62.5253 29.6381 62.1595L30.1747 53.2155C30.1828 53.066 30.2286 52.9218 30.3041 52.7937L47.8297 22.7365C47.9592 22.5149 48.1695 22.3547 48.4202 22.2906C48.6629 22.2239 48.9298 22.2586 49.1536 22.3867L56.1585 26.3915C56.6249 26.6558 56.7813 27.2432 56.5144 27.7051L38.9887 57.7596C38.9132 57.8904 38.8108 57.9999 38.6841 58.08L31.1426 63.0192C30.9809 63.126 30.7948 63.1794 30.6088 63.1794ZM32.0998 53.5599L31.6927 60.3574L37.4222 56.6036L54.3466 27.5769L49.0242 24.5333L32.0998 53.5599Z" fill="#EE6C4D"/>
</svg>
