<svg width="16" height="12" viewBox="0 0 16 12" fill="none" xmlns="http://www.w3.org/2000/svg">
<path d="M8 0.166687C4.36364 0.166687 1.25818 2.42851 0 5.62123C1.25818 8.81396 4.36364 11.0758 8 11.0758C11.6364 11.0758 14.7418 8.81396 16 5.62123C14.7418 2.42851 11.6364 0.166687 8 0.166687ZM8 9.2576C5.99273 9.2576 4.36364 7.6285 4.36364 5.62123C4.36364 3.61396 5.99273 1.98487 8 1.98487C10.0073 1.98487 11.6364 3.61396 11.6364 5.62123C11.6364 7.6285 10.0073 9.2576 8 9.2576ZM8 3.43941C6.79273 3.43941 5.81818 4.41396 5.81818 5.62123C5.81818 6.82851 6.79273 7.80305 8 7.80305C9.20727 7.80305 10.1818 6.82851 10.1818 5.62123C10.1818 4.41396 9.20727 3.43941 8 3.43941Z" fill="#4D4D4D"/>
</svg>
