<svg width="37" height="40" viewBox="0 0 37 40" fill="none" xmlns="http://www.w3.org/2000/svg">
<path fill-rule="evenodd" clip-rule="evenodd" d="M8.56322 18.968C7.38082 18.968 6.42236 19.9265 6.42236 21.1089V23.2497C6.42236 24.4321 7.38082 25.3906 8.56322 25.3906H10.7041C11.8865 25.3906 12.8449 24.4321 12.8449 23.2497V21.1089C12.8449 19.9265 11.8865 18.968 10.7041 18.968H8.56322ZM8.56322 21.1089V23.2497H10.7041V21.1089H8.56322Z" fill="#293241"/>
<path fill-rule="evenodd" clip-rule="evenodd" d="M14.9858 21.1089C14.9858 19.9265 15.9443 18.968 17.1267 18.968H19.2676C20.4499 18.968 21.4084 19.9265 21.4084 21.1089V23.2497C21.4084 24.4321 20.4499 25.3906 19.2676 25.3906H17.1267C15.9443 25.3906 14.9858 24.4321 14.9858 23.2497V21.1089ZM17.1267 21.1089H19.2676V23.2497H17.1267V21.1089Z" fill="#293241"/>
<path fill-rule="evenodd" clip-rule="evenodd" d="M25.6902 18.968C24.5078 18.968 23.5493 19.9265 23.5493 21.1089V23.2497C23.5493 24.4321 24.5078 25.3906 25.6902 25.3906H27.831C29.0134 25.3906 29.9719 24.4321 29.9719 23.2497V21.1089C29.9719 19.9265 29.0134 18.968 27.831 18.968H25.6902ZM25.6902 21.1089V23.2497H27.831V21.1089H25.6902Z" fill="#293241"/>
<path fill-rule="evenodd" clip-rule="evenodd" d="M6.42236 29.6724C6.42236 28.49 7.38082 27.5315 8.56322 27.5315H10.7041C11.8865 27.5315 12.8449 28.49 12.8449 29.6724V31.8132C12.8449 32.9956 11.8865 33.9541 10.7041 33.9541H8.56322C7.38082 33.9541 6.42236 32.9956 6.42236 31.8132V29.6724ZM8.56322 31.8132V29.6724H10.7041V31.8132H8.56322Z" fill="#293241"/>
<path fill-rule="evenodd" clip-rule="evenodd" d="M17.1267 27.5315C15.9443 27.5315 14.9858 28.49 14.9858 29.6724V31.8132C14.9858 32.9956 15.9443 33.9541 17.1267 33.9541H19.2676C20.4499 33.9541 21.4084 32.9956 21.4084 31.8132V29.6724C21.4084 28.49 20.4499 27.5315 19.2676 27.5315H17.1267ZM19.2676 29.6724H17.1267V31.8132H19.2676V29.6724Z" fill="#293241"/>
<path fill-rule="evenodd" clip-rule="evenodd" d="M23.5493 29.6724C23.5493 28.49 24.5078 27.5315 25.6902 27.5315H27.831C29.0134 27.5315 29.9719 28.49 29.9719 29.6724V31.8132C29.9719 32.9956 29.0134 33.9541 27.831 33.9541H25.6902C24.5078 33.9541 23.5493 32.9956 23.5493 31.8132V29.6724ZM25.6902 31.8132V29.6724H27.831V31.8132H25.6902Z" fill="#293241"/>
<path fill-rule="evenodd" clip-rule="evenodd" d="M9.63386 0.770752C9.04266 0.770752 8.56343 1.25 8.56343 1.84118V5.05247H4.28171C1.91699 5.05247 0 6.9695 0 9.33418V35.0245C0 37.3893 1.91699 39.3062 4.28171 39.3062H32.1129C34.4775 39.3062 36.3946 37.3893 36.3946 35.0245V9.33418C36.3946 6.9695 34.4775 5.05247 32.1129 5.05247H29.972V8.26375C29.972 8.85495 29.4928 9.33418 28.9016 9.33418C28.3104 9.33418 27.8311 8.85495 27.8311 8.26375V1.84118C27.8311 1.25 27.3519 0.770752 26.7607 0.770752C26.1695 0.770752 25.6903 1.25 25.6903 1.84118V5.05247H12.8451V8.26375C12.8451 8.85495 12.3659 9.33418 11.7747 9.33418C11.1835 9.33418 10.7043 8.85495 10.7043 8.26375V1.84118C10.7043 1.25 10.2251 0.770752 9.63386 0.770752ZM2.14086 35.0245V16.8272H34.2537V35.0245C34.2537 36.2069 33.2952 37.1653 32.1129 37.1653H4.28171C3.09935 37.1653 2.14086 36.2069 2.14086 35.0245Z" fill="#293241"/>
</svg>
