<svg width="87" height="86" viewBox="0 0 87 86" fill="none" xmlns="http://www.w3.org/2000/svg">
<path d="M70.1024 16.0191C67.718 16.0264 65.4033 16.8166 63.521 18.266C61.6387 19.7154 60.295 21.7421 59.7006 24.0287H48.3451C47.8421 20.0643 46.2258 16.3192 43.6799 13.2194C41.134 10.1195 37.7607 7.7893 33.9437 6.49377C30.1266 5.19823 26.019 4.98936 22.0881 5.8909C18.1571 6.79245 14.5605 8.76823 11.7073 11.5935C8.85409 14.4189 6.85886 17.9803 5.94849 21.8728C5.03811 25.7653 5.24914 29.8327 6.55757 33.6124C7.86601 37.392 10.2193 40.7322 13.3499 43.2531C16.4804 45.774 20.2626 47.3745 24.2662 47.8723V59.1162C21.7246 59.766 19.5095 61.3114 18.0362 63.4627C16.563 65.614 15.9326 68.2235 16.2634 70.8021C16.5942 73.3807 17.8633 75.7513 19.8329 77.4696C21.8026 79.1879 24.3374 80.1359 26.9624 80.1359C29.5874 80.1359 32.1223 79.1879 34.092 77.4696C36.0616 75.7513 37.3307 73.3807 37.6615 70.8021C37.9922 68.2235 37.3619 65.614 35.8887 63.4627C34.4154 61.3114 32.2003 59.766 29.6587 59.1162V47.8723C33.491 47.3951 37.1219 45.9015 40.1676 43.5493L50.0609 53.3477C49.0709 54.9751 48.5428 56.8369 48.5324 58.7368C48.5324 60.849 49.165 62.9137 50.35 64.6699C51.5351 66.4262 53.2195 67.795 55.1902 68.6033C57.1609 69.4116 59.3294 69.6231 61.4215 69.211C63.5136 68.7989 65.4353 67.7818 66.9436 66.2883C68.4519 64.7947 69.4791 62.8918 69.8952 60.8202C70.3114 58.7486 70.0978 56.6014 69.2815 54.6499C68.4652 52.6985 67.0829 51.0306 65.3093 49.8572C63.5357 48.6837 61.4505 48.0574 59.3174 48.0574C57.3983 48.0673 55.5175 48.5902 53.8737 49.5709L43.9801 39.7741C46.3553 36.7584 47.8635 33.1631 48.3451 29.3684H59.7006C60.2081 31.2979 61.2519 33.0478 62.7134 34.4194C64.1749 35.791 65.9956 36.7292 67.9686 37.1277C69.9416 37.5261 71.9879 37.3687 73.875 36.6734C75.7622 35.978 77.4147 34.7726 78.6448 33.194C79.8748 31.6154 80.6332 29.7268 80.8338 27.7429C81.0343 25.7589 80.669 23.759 79.7794 21.9703C78.8897 20.1815 77.5113 18.6757 75.8008 17.6237C74.0902 16.5718 72.116 16.0159 70.1024 16.0191ZM32.3549 69.4162C32.3549 70.4723 32.0387 71.5047 31.4461 72.3828C30.8536 73.2609 30.0114 73.9453 29.0261 74.3494C28.0407 74.7536 26.9565 74.8593 25.9104 74.6533C24.8644 74.4473 23.9035 73.9387 23.1494 73.1919C22.3952 72.4452 21.8816 71.4937 21.6736 70.4579C21.4655 69.4221 21.5723 68.3485 21.9804 67.3728C22.3886 66.3971 23.0797 65.5631 23.9665 64.9764C24.8533 64.3896 25.8959 64.0765 26.9624 64.0765C28.3921 64.0781 29.7628 64.6412 30.7737 65.6422C31.7846 66.6433 32.3533 68.0005 32.3549 69.4162ZM26.9624 42.7177C23.7628 42.7177 20.6351 41.7782 17.9747 40.018C15.3143 38.2577 13.2408 35.7559 12.0164 32.8288C10.7919 29.9017 10.4716 26.6808 11.0958 23.5734C11.72 20.466 13.2608 17.6116 15.5232 15.3713C17.7857 13.131 20.6682 11.6053 23.8064 10.9872C26.9445 10.3691 30.1973 10.6864 33.1533 11.8988C36.1094 13.1113 38.6359 15.1645 40.4135 17.7988C42.1912 20.4331 43.1399 23.5303 43.1399 26.6985C43.1352 30.9456 41.4293 35.0175 38.3965 38.0206C35.3636 41.0238 31.2515 42.713 26.9624 42.7177ZM64.7099 58.7368C64.7099 59.7929 64.3937 60.8252 63.8011 61.7034C63.2086 62.5815 62.3664 63.2659 61.3811 63.67C60.3957 64.0742 59.3115 64.1799 58.2654 63.9739C57.2194 63.7678 56.2585 63.2593 55.5044 62.5125C54.7502 61.7657 54.2366 60.8143 54.0286 59.7785C53.8205 58.7427 53.9273 57.6691 54.3354 56.6934C54.7436 55.7177 55.4347 54.8837 56.3215 54.297C57.2083 53.7102 58.2509 53.3971 59.3174 53.3971C60.7471 53.3987 62.1178 53.9618 63.1287 54.9628C64.1396 55.9639 64.7083 57.3211 64.7099 58.7368ZM70.1024 32.0383C69.0359 32.0383 67.9933 31.7251 67.1065 31.1383C66.2197 30.5516 65.5286 29.7177 65.1204 28.742C64.7123 27.7663 64.6055 26.6926 64.8136 25.6568C65.0216 24.621 65.5352 23.6696 66.2894 22.9228C67.0435 22.176 68.0044 21.6675 69.0504 21.4614C70.0965 21.2554 71.1807 21.3612 72.1661 21.7653C73.1514 22.1695 73.9936 22.8539 74.5861 23.732C75.1787 24.6101 75.4949 25.6425 75.4949 26.6985C75.4933 28.1142 74.9246 29.4715 73.9137 30.4725C72.9028 31.4735 71.5321 32.0366 70.1024 32.0383Z" fill="#EE6C4D"/>
</svg>
