<svg width="87" height="87" viewBox="0 0 87 87" fill="none" xmlns="http://www.w3.org/2000/svg">
<path fill-rule="evenodd" clip-rule="evenodd" d="M12.3257 0C3.0292 0 0 6.16286 0 12.3257C0.146738 18.4886 3.34257 24.6514 12.3257 24.6514H73.9543L67.7914 18.4886H12.3257C6.16286 18.4886 6.16286 12.3257 6.16286 12.3257C6.16286 12.3257 6.16286 6.16286 12.3257 6.16286H67.7914L73.9543 0H12.3257ZM12.3257 10.785V13.8664H67.7914V10.785H12.3257ZM24.6514 30.8143C15.3549 30.8143 12.3257 36.9771 12.3257 43.14C12.4725 49.3029 15.6683 55.4657 24.6514 55.4657H86.28L80.1171 49.3029H24.6514C18.4886 49.3029 18.4886 43.14 18.4886 43.14C18.4886 43.14 18.4886 36.9771 24.6514 36.9771H80.1171L86.28 30.8143H24.6514ZM24.6514 41.5993V44.6807H80.1171V41.5993H24.6514ZM12.3257 61.6286C3.0292 61.6286 0 67.7914 0 73.9543C0.146738 80.1171 3.34257 86.28 12.3257 86.28H73.9543L67.7914 80.1171H12.3257C6.16286 80.1171 6.16286 73.9543 6.16286 73.9543C6.16286 73.9543 6.16286 67.7914 12.3257 67.7914H67.7914L73.9543 61.6286H12.3257ZM12.3257 72.4136V75.495H67.7914V72.4136H12.3257Z" fill="#293241"/>
</svg>
