<svg width="23" height="27" viewBox="0 0 23 27" fill="none" xmlns="http://www.w3.org/2000/svg">
<path d="M18.0875 9.2225V6.5875C18.0875 2.8985 15.189 0 11.5 0C7.81096 0 4.91246 2.8985 4.91246 6.5875V9.2225C2.67271 9.2225 0.959961 10.9352 0.959961 13.175V22.3975C0.959961 24.6372 2.67271 26.35 4.91246 26.35H18.0875C20.3272 26.35 22.04 24.6372 22.04 22.3975V13.175C22.04 10.9352 20.3272 9.2225 18.0875 9.2225ZM7.54746 6.5875C7.54746 4.34775 9.26021 2.635 11.5 2.635C13.7397 2.635 15.4525 4.34775 15.4525 6.5875V9.2225H7.54746V6.5875Z" fill="white"/>
</svg>
