<svg width="37" height="37" viewBox="0 0 37 37" fill="none" xmlns="http://www.w3.org/2000/svg">
<path d="M18.1973 0.48291L17.354 0.502296C12.5694 0.724259 8.06528 2.82365 4.81858 6.34509C1.57188 9.86652 -0.155543 14.526 0.0110179 19.3129C0.177606 24.0996 2.2247 28.6277 5.70826 31.9149C9.19182 35.2022 13.8309 36.9834 18.6193 36.8724C23.4076 36.7613 27.959 34.7669 31.2864 31.3218C34.6137 27.8768 36.4487 23.2588 36.3934 18.4695C36.3379 13.6801 34.3964 9.10573 30.99 5.73854C27.5836 2.37135 22.9871 0.48293 18.1973 0.48291ZM18.1973 3.79151C22.1162 3.79142 25.8772 5.33641 28.6643 8.09136C31.4514 10.8463 33.04 14.589 33.0854 18.5077C33.1308 22.4263 31.6295 26.2049 28.9069 29.0237C26.1844 31.8425 22.4603 33.4743 18.5424 33.565C14.6246 33.6559 10.829 32.1984 7.97885 29.5088C5.12871 26.8192 3.45389 23.1143 3.31768 19.1978C3.18148 15.2813 4.59492 11.469 7.25139 8.58789C9.90787 5.70677 13.5931 3.98917 17.5078 3.80767L18.1973 3.79151Z" fill="#293241"/>
<path d="M27.162 22.9407C26.7686 23.7685 25.7855 24.1182 24.9577 23.7248L17.487 20.1742C16.6593 19.7808 16.3096 18.7977 16.703 17.9699C17.0964 17.1422 18.0795 16.7925 18.9073 17.1859L26.378 20.7365C27.2057 21.1299 27.5554 22.113 27.162 22.9407Z" fill="#293241"/>
<path d="M13.7526 7.98683C14.5988 7.63508 15.5633 8.03321 15.9151 8.87951L19.7247 18.0451C20.0764 18.8914 19.6783 19.8559 18.832 20.2077C17.9857 20.5594 17.0212 20.1613 16.6695 19.315L12.8599 10.1494C12.5081 9.30307 12.9063 8.33858 13.7526 7.98683Z" fill="#293241"/>
<path d="M17.3701 3.79126H19.0244V5.44556H17.3701V3.79126Z" fill="#293241"/>
<path d="M3.30859 17.853H4.96289V19.5073H3.30859V17.853Z" fill="#293241"/>
<path d="M17.3701 31.9146H19.0244V33.5689H17.3701V31.9146Z" fill="#293241"/>
<path d="M31.4316 17.853H33.0859V19.5073H31.4316V17.853Z" fill="#293241"/>
<path d="M18.1973 16.1985C18.8504 16.1985 19.4772 16.456 19.9417 16.9151C20.4062 17.3743 20.671 17.9981 20.6786 18.6512C20.6861 19.3043 20.4359 19.934 19.9822 20.4038C19.5284 20.8736 18.9077 21.1456 18.2548 21.1607C17.6018 21.1759 16.9692 20.9329 16.4942 20.4847C16.0192 20.0364 15.74 19.4189 15.7173 18.7662C15.6946 18.1134 15.9302 17.4781 16.3729 16.9979C16.8156 16.5177 17.4298 16.2314 18.0823 16.2012" fill="#293241"/>
</svg>
