<svg width="87" height="84" viewBox="0 0 87 84" fill="none" xmlns="http://www.w3.org/2000/svg">
<path d="M72.2932 63.2421C74.0345 58.0137 75.1299 52.6183 75.5793 47.0561H86.28C85.5498 52.7296 83.6961 58.1249 80.719 63.2421H72.2932ZM72.2932 20.1073H80.719C83.6961 25.2245 85.5498 30.6199 86.28 36.2933H75.5793C75.1299 30.7311 74.0345 25.3358 72.2932 20.1073ZM63.1934 3.50418C66.2828 5.11722 69.1476 7.06398 71.7877 9.34448H67.4062C66.0581 7.11961 64.6538 5.17284 63.1934 3.50418ZM48.6168 36.2933V20.1073H61.9295C63.4461 25.1689 64.373 30.5642 64.71 36.2933H48.6168ZM48.6168 0C51.9309 1.66866 54.8799 4.78349 57.4638 9.34448H48.6168V0ZM24.3505 63.2421C22.8339 58.1805 21.907 52.7852 21.57 47.0561H37.6632V63.2421H24.3505ZM24.3505 20.1073H37.6632V36.2933H21.57C21.907 30.5642 22.8339 25.1689 24.3505 20.1073ZM37.6632 0V9.34448H28.8162C31.4001 4.78349 34.3491 1.66866 37.6632 0ZM14.4923 9.34448C17.1324 7.06398 19.9972 5.11722 23.0866 3.50418C21.6262 5.17284 20.2219 7.11961 18.8737 9.34448H14.4923ZM0 36.2933C0.730234 30.6199 2.58391 25.2245 5.56102 20.1073H13.9868C12.2455 25.3358 11.1501 30.7311 10.7007 36.2933H0ZM13.9868 63.2421H5.56102C2.58391 58.1249 0.730234 52.7296 0 47.0561H10.7007C11.1501 52.6183 12.2455 58.0137 13.9868 63.2421ZM18.8737 74.005C20.2219 76.2298 21.6262 78.1766 23.0866 79.8453C19.9972 78.2322 17.1324 76.2855 14.4923 74.005H18.8737ZM37.6632 74.005V83.3494C34.3491 81.6252 31.4001 78.5103 28.8162 74.005H37.6632ZM48.6168 47.0561H64.71C64.373 52.7852 63.4461 58.1805 61.9295 63.2421H48.6168V47.0561ZM57.4638 74.005C54.8799 78.5103 51.9309 81.6252 48.6168 83.3494V74.005H57.4638ZM71.7877 74.005C69.2038 76.2855 66.339 78.2322 63.1934 79.8453C64.6538 78.1766 66.0581 76.2298 67.4062 74.005H71.7877Z" fill="#EE6C4D"/>
</svg>
